<?xml version="1.0" encoding="UTF-8" standalone="no"?>
<!-- Created with Inkscape (http://www.inkscape.org/) -->

<svg
   version="1.1"
   id="svg5942"
   width="277"
   height="466"
   viewBox="0 0 277 466"
   sodipodi:docname="cross-just-kjv-bold.png"
   xmlns:inkscape="http://www.inkscape.org/namespaces/inkscape"
   xmlns:sodipodi="http://sodipodi.sourceforge.net/DTD/sodipodi-0.dtd"
   xmlns="http://www.w3.org/2000/svg"
   xmlns:svg="http://www.w3.org/2000/svg">
  <defs
     id="defs5946" />
  <sodipodi:namedview
     id="namedview5944"
     pagecolor="#ffffff"
     bordercolor="#000000"
     borderopacity="0.25"
     inkscape:showpageshadow="2"
     inkscape:pageopacity="0.0"
     inkscape:pagecheckerboard="0"
     inkscape:deskcolor="#d1d1d1"
     showgrid="false" />
  <g
     inkscape:groupmode="layer"
     inkscape:label="Image"
     id="g5948">
    <path
       style="fill:#bb86fcff"
       d="M 0,420 V 374 H 46.505075 93.010149 L 92.755075,279.25 92.5,184.5 46.25,184.24001 0,183.98003 V 139.49001 95 H 46.5 93 V 47.5 0 H 138.5 184 V 47.5 95 h 46.5 46.5 v 44.49001 44.49002 L 230.75,184.24001 184.5,184.5 184.24493,279.25 183.98985,374 H 230.49493 277 v 46 46 H 138.5 0 Z m 135.698,38.90415 c 6.01651,-2.91254 9.20027,-7.9871 10.38768,-16.55679 C 146.6075,438.58131 146.91419,423.575 146.76722,409 L 146.5,382.5 h -8 -8 l -0.5,31.14663 c -0.56264,35.04893 -0.49934,34.76996 -8.16871,35.99634 L 118,450.25562 v 6.01679 6.0168 l 6.63202,-0.61931 c 3.64761,-0.34062 8.6273,-1.58521 11.06598,-2.76575 z M 55,433 c 0,-6.6 0.344534,-12 0.765632,-12 0.421097,0 6.151563,5.4 12.734368,12 l 11.968736,12 H 90.473002 100.47727 L 84.000784,428.50079 67.524301,412.00157 81.762151,397.73827 C 89.592968,389.89346 96,383.14311 96,382.73749 96,382.33187 92.172187,382 87.493749,382 H 78.987497 L 67.632539,393 C 61.387312,399.05 55.990126,404 55.638791,404 55.287456,404 55,399.03107 55,392.95794 V 381.91587 L 47.25,382.20794 39.5,382.5 39.235753,413.75 38.971507,445 H 46.985753 55 Z m 175.5432,-11.75 c 4.82746,-13.0625 10.02555,-27.03797 11.55131,-31.05659 3.22395,-8.49142 3.27764,-8.42647 -6.60627,-7.99254 l -6.81334,0.29913 -8.08745,22.67733 c -4.4481,12.47253 -8.37454,22.14753 -8.72543,21.5 C 211.51113,426.0298 207.95305,416.275 203.95517,405 c -3.99788,-11.275 -7.70339,-21.0625 -8.23446,-21.75 -0.62023,-0.80291 -3.64609,-1.25 -8.45979,-1.25 -6.65543,0 -7.4399,0.19586 -7.00913,1.75 0.68127,2.45792 21.82768,59.56957 22.39841,60.49303 0.25731,0.41634 4.66363,0.75697 9.79182,0.75697 h 9.32399 z"
       id="path5952" />
  </g>
</svg>
